<svg width="22" height="22" viewBox="0 0 22 22" fill="none" xmlns="http://www.w3.org/2000/svg">
<path d="M10.932 17C11.298 17 11.6088 16.8722 11.8645 16.6165C12.12 16.361 12.2478 16.05 12.2478 15.6835C12.2478 15.317 12.12 15.0072 11.8645 14.754C11.6088 14.501 11.298 14.3745 10.932 14.3745C10.5662 14.3745 10.2554 14.501 9.99975 14.754C9.74409 15.0072 9.61625 15.317 9.61625 15.6835C9.61625 16.05 9.74409 16.361 9.99975 16.6165C10.2554 16.8722 10.5662 17 10.932 17ZM9.96625 13.15H11.9358C11.9358 12.616 11.9993 12.1887 12.1263 11.868C12.2533 11.5473 12.5985 11.1199 13.162 10.5858C13.5833 10.1684 13.918 9.76084 14.166 9.363C14.414 8.96517 14.538 8.48692 14.538 7.92825C14.538 6.98009 14.2003 6.253 13.525 5.747C12.8497 5.241 12.0453 4.988 11.112 4.988C10.146 4.988 9.35725 5.248 8.74575 5.768C8.13409 6.28784 7.70759 6.90975 7.46625 7.63375L9.24775 8.3255C9.33909 8.0175 9.52559 7.6905 9.80725 7.3445C10.0891 6.9985 10.514 6.8255 11.082 6.8255C11.5675 6.8255 11.9337 6.96142 12.1805 7.23325C12.4272 7.50492 12.5505 7.80384 12.5505 8.13C12.5505 8.44334 12.4535 8.74284 12.2595 9.0285C12.0655 9.31417 11.8324 9.57009 11.5603 9.79625C10.8429 10.4383 10.3979 10.9329 10.2253 11.2803C10.0526 11.6274 9.96625 12.2507 9.96625 13.15ZM11 21.2033C9.58484 21.2033 8.257 20.9356 7.0165 20.4003C5.77584 19.8649 4.69667 19.1385 3.779 18.221C2.8615 17.3033 2.13509 16.2242 1.59975 14.9835C1.06442 13.743 0.796753 12.4152 0.796753 11C0.796753 9.58484 1.06442 8.257 1.59975 7.0165C2.13509 5.77584 2.8615 4.69667 3.779 3.779C4.69667 2.8615 5.77584 2.13509 7.0165 1.59975C8.257 1.06442 9.58484 0.796753 11 0.796753C12.4152 0.796753 13.743 1.06442 14.9835 1.59975C16.2242 2.13509 17.3033 2.8615 18.221 3.779C19.1385 4.69667 19.8649 5.77584 20.4003 7.0165C20.9356 8.257 21.2033 9.58484 21.2033 11C21.2033 12.4152 20.9356 13.743 20.4003 14.9835C19.8649 16.2242 19.1385 17.3033 18.221 18.221C17.3033 19.1385 16.2242 19.8649 14.9835 20.4003C13.743 20.9356 12.4152 21.2033 11 21.2033ZM11 18.9283C13.2173 18.9283 15.0931 18.1613 16.6273 16.6273C18.1613 15.0931 18.9283 13.2173 18.9283 11C18.9283 8.78267 18.1613 6.90692 16.6273 5.37275C15.0931 3.83875 13.2173 3.07175 11 3.07175C8.78267 3.07175 6.90692 3.83875 5.37275 5.37275C3.83875 6.90692 3.07175 8.78267 3.07175 11C3.07175 13.2173 3.83875 15.0931 5.37275 16.6273C6.90692 18.1613 8.78267 18.9283 11 18.9283Z" fill="white"/>
</svg>
