<svg width="22" height="22" viewBox="0 0 22 22" fill="none" xmlns="http://www.w3.org/2000/svg">
<path d="M9.91025 16.0898H12.0898V10H9.91025V16.0898ZM11 8.1195C11.3172 8.1195 11.5831 8.01225 11.7978 7.79775C12.0123 7.58309 12.1195 7.31717 12.1195 7C12.1195 6.68284 12.0123 6.41692 11.7978 6.20225C11.5831 5.98775 11.3172 5.8805 11 5.8805C10.6828 5.8805 10.4169 5.98775 10.2023 6.20225C9.98775 6.41692 9.8805 6.68284 9.8805 7C9.8805 7.31717 9.98775 7.58309 10.2023 7.79775C10.4169 8.01225 10.6828 8.1195 11 8.1195ZM11 21.2033C9.58484 21.2033 8.257 20.9356 7.0165 20.4003C5.77584 19.8649 4.69667 19.1385 3.779 18.221C2.8615 17.3033 2.13509 16.2242 1.59975 14.9835C1.06442 13.743 0.796753 12.4152 0.796753 11C0.796753 9.58484 1.06442 8.257 1.59975 7.0165C2.13509 5.77584 2.8615 4.69667 3.779 3.779C4.69667 2.8615 5.77584 2.13509 7.0165 1.59975C8.257 1.06442 9.58484 0.796753 11 0.796753C12.4152 0.796753 13.743 1.06442 14.9835 1.59975C16.2242 2.13509 17.3033 2.8615 18.221 3.779C19.1385 4.69667 19.8649 5.77584 20.4003 7.0165C20.9356 8.257 21.2033 9.58484 21.2033 11C21.2033 12.4152 20.9356 13.743 20.4003 14.9835C19.8649 16.2242 19.1385 17.3033 18.221 18.221C17.3033 19.1385 16.2242 19.8649 14.9835 20.4003C13.743 20.9356 12.4152 21.2033 11 21.2033ZM11 18.9283C13.2173 18.9283 15.0931 18.1613 16.6273 16.6273C18.1613 15.0931 18.9283 13.2173 18.9283 11C18.9283 8.78267 18.1613 6.90692 16.6273 5.37275C15.0931 3.83875 13.2173 3.07175 11 3.07175C8.78267 3.07175 6.90692 3.83875 5.37275 5.37275C3.83875 6.90692 3.07175 8.78267 3.07175 11C3.07175 13.2173 3.83875 15.0931 5.37275 16.6273C6.90692 18.1613 8.78267 18.9283 11 18.9283Z" fill="white"/>
</svg>
