<svg width="24" height="24" viewBox="0 0 24 24" fill="none" xmlns="http://www.w3.org/2000/svg">
<path d="M5.07175 21.2033C4.44209 21.2033 3.9055 20.9815 3.462 20.538C3.0185 20.0945 2.79675 19.5579 2.79675 18.9283V5.07175C2.79675 4.44209 3.0185 3.9055 3.462 3.462C3.9055 3.0185 4.44209 2.79675 5.07175 2.79675H16L21.2033 8V18.9283C21.2033 19.5579 20.9815 20.0945 20.538 20.538C20.0945 20.9815 19.5579 21.2033 18.9283 21.2033H5.07175ZM5.07175 18.9283H18.9283V9.1675H14.8325V5.07175H5.07175V18.9283ZM6.93425 16.9523H17.0658V14.9103H6.93425V16.9523ZM6.93425 9.1375H12.1853V7.08975H6.93425V9.1375ZM6.93425 13.0478H17.0658V11H6.93425V13.0478Z" fill="white"/>
</svg>
