<svg width="20" height="20" viewBox="0 0 20 20" fill="none" xmlns="http://www.w3.org/2000/svg">
<path d="M7.1675 19.1853H3.07175C2.44209 19.1853 1.9055 18.9635 1.462 18.52C1.0185 18.0767 0.796753 17.5401 0.796753 16.9103V10C0.796753 8.72617 1.03925 7.53042 1.52425 6.41275C2.00925 5.29525 2.66584 4.32234 3.494 3.494C4.32234 2.66584 5.29525 2.00925 6.41275 1.52425C7.53042 1.03925 8.72617 0.796753 10 0.796753C11.2738 0.796753 12.4696 1.03925 13.5873 1.52425C14.7048 2.00925 15.6777 2.66584 16.506 3.494C17.3342 4.32234 17.9908 5.29525 18.4758 6.41275C18.9608 7.53042 19.2033 8.72617 19.2033 10V16.9103C19.2033 17.5401 18.9815 18.0767 18.538 18.52C18.0945 18.9635 17.5579 19.1853 16.9283 19.1853H12.8325V10.8148H16.9283V10C16.9283 8.07 16.256 6.43275 14.9115 5.08825C13.5672 3.74392 11.93 3.07175 10 3.07175C8.07 3.07175 6.43275 3.74392 5.08825 5.08825C3.74392 6.43275 3.07175 8.07 3.07175 10V10.8148H7.1675V19.1853ZM4.8925 13.0898H3.07175V16.9103H4.8925V13.0898ZM15.1075 13.0898V16.9103H16.9283V13.0898H15.1075Z" fill="white"/>
</svg>
