<svg width="20" height="20" viewBox="0 0 20 20" fill="none" xmlns="http://www.w3.org/2000/svg">
<path d="M7.45225 14.5838L14.5838 10L7.45225 5.41625V14.5838ZM3.07175 19.2033C2.44209 19.2033 1.9055 18.9815 1.462 18.538C1.0185 18.0945 0.796753 17.5579 0.796753 16.9283V3.07175C0.796753 2.44209 1.0185 1.9055 1.462 1.462C1.9055 1.0185 2.44209 0.796753 3.07175 0.796753H16.9283C17.5579 0.796753 18.0945 1.0185 18.538 1.462C18.9815 1.9055 19.2033 2.44209 19.2033 3.07175V16.9283C19.2033 17.5579 18.9815 18.0945 18.538 18.538C18.0945 18.9815 17.5579 19.2033 16.9283 19.2033H3.07175ZM3.07175 16.9283H16.9283V3.07175H3.07175V16.9283Z" fill="white"/>
</svg>
