<svg width="24" height="24" viewBox="0 0 24 24" fill="none" xmlns="http://www.w3.org/2000/svg">
<path d="M9.1675 21.1853H5.07175C4.44209 21.1853 3.9055 20.9635 3.462 20.52C3.0185 20.0767 2.79675 19.5401 2.79675 18.9103V12C2.79675 10.7262 3.03925 9.53042 3.52425 8.41275C4.00925 7.29525 4.66584 6.32234 5.494 5.494C6.32234 4.66584 7.29525 4.00925 8.41275 3.52425C9.53042 3.03925 10.7262 2.79675 12 2.79675C13.2738 2.79675 14.4696 3.03925 15.5873 3.52425C16.7048 4.00925 17.6777 4.66584 18.506 5.494C19.3342 6.32234 19.9908 7.29525 20.4758 8.41275C20.9608 9.53042 21.2033 10.7262 21.2033 12V18.9103C21.2033 19.5401 20.9815 20.0767 20.538 20.52C20.0945 20.9635 19.5579 21.1853 18.9283 21.1853H14.8325V12.8148H18.9283V12C18.9283 10.07 18.256 8.43275 16.9115 7.08825C15.5672 5.74392 13.93 5.07175 12 5.07175C10.07 5.07175 8.43275 5.74392 7.08825 7.08825C5.74392 8.43275 5.07175 10.07 5.07175 12V12.8148H9.1675V21.1853ZM6.8925 15.0898H5.07175V18.9103H6.8925V15.0898ZM17.1075 15.0898V18.9103H18.9283V15.0898H17.1075Z" fill="#1F1F1F"/>
</svg>
